<?xml version="1.0" encoding="UTF-8"?>
<svg version="1.1" xmlns="http://www.w3.org/2000/svg" width="200" height="200">
<path d="M0 0 C66 0 132 0 200 0 C200 66 200 132 200 200 C134 200 68 200 0 200 C0 134 0 68 0 0 Z " fill="#FEFCFC" transform="translate(0,0)"/>
<path d="M0 0 C0.11480713 0.67764404 0.22961426 1.35528809 0.34790039 2.0534668 C4.59275177 26.64954996 10.3884764 50.94910954 25.75 71.1796875 C27 73 27 73 27 75 C26.46632813 74.81824219 25.93265625 74.63648438 25.3828125 74.44921875 C12.94976794 70.06409004 12.94976794 70.06409004 0 68 C-1.16402344 67.93554688 -2.32804687 67.87109375 -3.52734375 67.8046875 C-18.26211751 67.25625583 -30.28327997 71.03624101 -42.953125 78.29296875 C-46.52028648 80.29149383 -49.27360292 81.17996279 -53.3125 81.3125 C-54.42044922 81.36857422 -54.42044922 81.36857422 -55.55078125 81.42578125 C-62.00200902 80.30427594 -66.8626244 74.44446322 -71.296875 70.00390625 C-71.97171936 69.33334702 -72.64656372 68.66278778 -73.34185791 67.97190857 C-74.75957753 66.55990672 -76.17471798 65.14531101 -77.58740234 63.72827148 C-79.74841898 61.56408334 -81.92245495 59.41359155 -84.09765625 57.26367188 C-85.4773726 55.88622763 -86.85630622 54.50799881 -88.234375 53.12890625 C-88.88331726 52.48917374 -89.53225952 51.84944122 -90.2008667 51.19032288 C-94.40047023 46.9472036 -96.83911671 43.84227146 -97.1875 37.6875 C-93.71230022 26.89609015 -78.65925449 19.93908266 -69.0234375 14.86328125 C-47.30266318 3.89567247 -24.20081832 -0.77236654 0 0 Z " fill="#B9212B" transform="translate(106,110)"/>
<path d="M0 0 C2.04837526 1.61713836 3.37283541 3.00467805 5 5 C5.87785156 5.98806641 5.87785156 5.98806641 6.7734375 6.99609375 C19.64999182 22.08660109 27.30087054 40.91109187 32 60 C32.45052734 61.82917969 32.45052734 61.82917969 32.91015625 63.6953125 C35.32291662 74.80523233 35.32230412 85.66811762 35 97 C34.39631592 97.11754639 33.79263184 97.23509277 33.1706543 97.35620117 C7.30832389 102.45192 -17.54680701 108.91010526 -39 125 C-39 121.21629695 -37.79026065 118.09019796 -36.5625 114.5625 C-30.84411179 97.95194376 -30.38397404 79.11637721 -38 63 C-39.07453871 60.90298161 -40.16864827 58.81712428 -41.26733398 56.73266602 C-47.34744649 45.16343277 -47.34744649 45.16343277 -45.8815918 40.06738281 C-42.20715888 31.45062902 -32.28753783 24.10139152 -25.72875977 17.54345703 C-23.80130309 15.61379025 -21.88201892 13.67622693 -19.96289062 11.73828125 C-18.73225997 10.50472016 -17.501157 9.27163006 -16.26953125 8.0390625 C-15.69966995 7.46201569 -15.12980865 6.88496887 -14.54267883 6.29043579 C-9.92445971 1.69864208 -6.69037982 -0.95576855 0 0 Z " fill="#B9212B" transform="translate(55,9)"/>
<path d="M0 0 C0.99 0.495 0.99 0.495 2 1 C1.401875 2.134375 0.80375 3.26875 0.1875 4.4375 C-6.97526962 18.78843913 -8.90208562 37.55716033 -4 53 C-1.72536629 59.72948236 0.96980024 66.04592575 4.3125 72.3125 C6.86900348 77.32641767 7.96246277 80.41771593 7 86 C4.02575012 91.15137174 0.17025865 95.12174224 -4.03125 99.296875 C-4.70418091 99.97171936 -5.37711182 100.64656372 -6.07043457 101.34185791 C-7.48671972 102.75949801 -8.90550949 104.17463985 -10.32666016 105.58740234 C-12.50007078 107.75007043 -14.66256509 109.92324368 -16.82421875 112.09765625 C-18.20508807 113.47720451 -19.58657738 114.85613253 -20.96875 116.234375 C-21.6136438 116.88331726 -22.2585376 117.53225952 -22.92297363 118.2008667 C-23.53040405 118.8019928 -24.13783447 119.4031189 -24.76367188 120.02246094 C-25.29343628 120.55063416 -25.82320068 121.07880737 -26.36901855 121.62298584 C-29.30932283 124.10544242 -31.61120096 124.95051649 -35.4375 125.4375 C-39.89754253 124.88977548 -41.3478532 123.34729639 -44 120 C-44.60714844 119.29488281 -45.21429688 118.58976562 -45.83984375 117.86328125 C-66.51867198 93.2153881 -74.81823363 59.63836692 -74 28 C-73.4423999 27.89977539 -72.8847998 27.79955078 -72.31030273 27.69628906 C-32.8944331 21.0845683 -32.8944331 21.0845683 0 0 Z " fill="#B9202A" transform="translate(184,66)"/>
<path d="M0 0 C6.37519675 2.34430337 10.8065734 6.23884021 15.4921875 11.03125 C16.16420197 11.70418091 16.83621643 12.37711182 17.52859497 13.07043457 C18.93659568 14.48444073 20.33977001 15.90326782 21.73828125 17.32666016 C23.87915264 19.50422382 26.03577978 21.66517616 28.1953125 23.82421875 C29.56605437 25.20478637 30.93587891 26.58626553 32.3046875 27.96875 C32.94735565 28.6136438 33.5900238 29.2585376 34.25216675 29.92297363 C35.14417282 30.83411926 35.14417282 30.83411926 36.05419922 31.76367188 C36.57634003 32.29343628 37.09848083 32.82320068 37.63644409 33.36901855 C40.11364415 36.33205609 40.95467092 38.58448348 41.375 42.4375 C40.81686151 47.7398157 38.17443055 50.02960868 34.14453125 53.359375 C7.39231363 72.97441636 -22.92841013 82.07842141 -56 81 C-56.09498779 80.38705078 -56.18997559 79.77410156 -56.2878418 79.14257812 C-58.29286453 66.41514598 -60.51699527 54.10197947 -65 42 C-65.25120605 41.31244629 -65.50241211 40.62489258 -65.76123047 39.91650391 C-69.30728038 30.36844422 -73.64468956 21.68414576 -79.08203125 13.07421875 C-80.53533601 10.74478729 -81.84153336 8.48242851 -83 6 C-81.81921875 6.42152344 -80.6384375 6.84304687 -79.421875 7.27734375 C-77.86461798 7.83082667 -76.3073244 8.3842067 -74.75 8.9375 C-73.97269531 9.21529297 -73.19539063 9.49308594 -72.39453125 9.77929688 C-71.64042969 10.04677734 -70.88632813 10.31425781 -70.109375 10.58984375 C-69.41811523 10.83597412 -68.72685547 11.08210449 -68.01464844 11.33569336 C-53.73423608 16.04449147 -35.52505766 14.31240243 -22 8 C-18.65324071 6.29981379 -15.34205285 4.54014888 -12.13256836 2.59179688 C-7.87306412 0.08670111 -4.9028501 -0.6605154 0 0 Z " fill="#B9202A" transform="translate(150,9)"/>
<path d="M0 0 C16.65998076 20.03700388 28.35492558 49.83230493 28 76 C58.1806964 74.07570422 82.48698361 68.9060737 109 54 C109.33 54.66 109.66 55.32 110 56 C109.01 56.495 109.01 56.495 108 57 C108.66 57.66 109.32 58.32 110 59 C96.62284212 67.8627133 81.46000378 73.17780207 65.9375 76.9375 C65.11838135 77.13682129 64.2992627 77.33614258 63.45532227 77.54150391 C57.01288617 78.99647741 50.58407083 79.57688462 44 80 C45.70006655 111.73192127 52.01505298 143.31054698 72.21484375 168.7421875 C74 171 74 171 75 173 C74.01 173 73.02 173 72 173 C71.67 172.34 71.34 171.68 71 171 C70.401875 171.350625 69.80375 171.70125 69.1875 172.0625 C67 173 67 173 64 172 C64.33 171.34 64.66 170.68 65 170 C65.66 170.33 66.32 170.66 67 171 C66.43152344 170.15179688 65.86304688 169.30359375 65.27734375 168.4296875 C51.34187257 147.38694401 40 121.74877286 40 96 C9.22656689 96.75983785 -20.46485056 104.35151658 -46 122 C-47 119 -47 119 -46 116 C-43.66779767 114.45120154 -41.38964803 113.08263959 -38.9375 111.75 C-38.21578613 111.35449951 -37.49407227 110.95899902 -36.75048828 110.55151367 C-17.6754328 100.2635871 2.32331253 93.80121472 24 92 C23.34508014 59.67970512 15.92671312 29.07772425 -4 3 C-3.34 2.67 -2.68 2.34 -2 2 C-2 2.66 -2 3.32 -2 4 C-1.34 4 -0.68 4 0 4 C0 2.68 0 1.36 0 0 Z " fill="#FDFBFA" transform="translate(66,14)"/>
<path d="M0 0 C16.25805434 19.5536059 29.17039197 50.25137671 28 76 C31.96 76 35.92 76 40 76 C40 76.33 40 76.66 40 77 C35.71 77 31.42 77 27 77 C26.67 76.34 26.34 75.68 26 75 C25.93941406 76.26457031 25.87882812 77.52914062 25.81640625 78.83203125 C25.73199096 80.49219871 25.64734345 82.15235437 25.5625 83.8125 C25.52318359 84.64587891 25.48386719 85.47925781 25.44335938 86.33789062 C25.40146484 87.14033203 25.35957031 87.94277344 25.31640625 88.76953125 C25.27974854 89.50792236 25.24309082 90.24631348 25.20532227 91.00708008 C25 93 25 93 24 96 C19.12704096 97.51493788 14.17079665 98.35467846 9.15161133 99.2409668 C-10.78422743 102.8536339 -29.28507199 110.51982464 -46 122 C-47 119 -47 119 -46 116 C-43.66779767 114.45120154 -41.38964803 113.08263959 -38.9375 111.75 C-38.21578613 111.35449951 -37.49407227 110.95899902 -36.75048828 110.55151367 C-17.6754328 100.2635871 2.32331253 93.80121472 24 92 C23.34508014 59.67970512 15.92671312 29.07772425 -4 3 C-3.34 2.67 -2.68 2.34 -2 2 C-2 2.66 -2 3.32 -2 4 C-1.34 4 -0.68 4 0 4 C0 2.68 0 1.36 0 0 Z " fill="#FBE9E8" transform="translate(66,14)"/>
<path d="M0 0 C0.33 0 0.66 0 1 0 C1.03440186 0.64211426 1.06880371 1.28422852 1.10424805 1.94580078 C2.88262097 32.99701923 9.47378349 63.88809105 29.21484375 88.7421875 C31 91 31 91 32 93 C31.01 93 30.02 93 29 93 C28.505 92.01 28.505 92.01 28 91 C27.401875 91.350625 26.80375 91.70125 26.1875 92.0625 C24 93 24 93 21 92 C21.33 91.34 21.66 90.68 22 90 C22.66 90.33 23.32 90.66 24 91 C23.14728516 89.72769531 23.14728516 89.72769531 22.27734375 88.4296875 C8.8460992 68.14833282 -1.36070602 44.60905873 -3 20 C-2.53320312 17.72094727 -2.53320312 17.72094727 -2 16 C-1.67 16 -1.34 16 -1 16 C-0.67 10.72 -0.34 5.44 0 0 Z " fill="#FBE4E6" transform="translate(109,94)"/>
<path d="M0 0 C0.495 0.99 0.495 0.99 1 2 C0.34 2.33 -0.32 2.66 -1 3 C-0.34 3.66 0.32 4.32 1 5 C-17.68585689 17.37986378 -40.75713992 24.23460008 -63 26 C-63 24.35 -63 22.7 -63 21 C-62.06655762 20.87322876 -62.06655762 20.87322876 -61.11425781 20.74389648 C-38.49184597 17.57468338 -19.88171459 11.1778418 0 0 Z " fill="#FCE7E8" transform="translate(175,68)"/>
<path d="M0 0 C0 0.99 0 1.98 0 3 C-0.54188965 3.13986328 -1.0837793 3.27972656 -1.64208984 3.42382812 C-19.95591345 8.2211321 -36.1249822 14.66577575 -52 25 C-52.66 25.33 -53.32 25.66 -54 26 C-55 23 -55 23 -54 20 C-51.66792034 18.451283 -49.3892414 17.08308805 -46.9375 15.75 C-46.22158691 15.35594971 -45.50567383 14.96189941 -44.76806641 14.5559082 C-31.48969565 7.37083748 -15.47405725 -1.23792458 0 0 Z " fill="#FCE9EA" transform="translate(74,110)"/>
<path d="M0 0 C0.66 0 1.32 0 2 0 C4.89076849 9.79006929 7.46715559 19.72257708 7 30 C10.96 30 14.92 30 19 30 C19 30.33 19 30.66 19 31 C14.71 31 10.42 31 6 31 C5.67 30.34 5.34 29.68 5 29 C4.93941406 30.26457031 4.87882812 31.52914062 4.81640625 32.83203125 C4.73199096 34.49219871 4.64734345 36.15235437 4.5625 37.8125 C4.52318359 38.64587891 4.48386719 39.47925781 4.44335938 40.33789062 C4.40146484 41.14033203 4.35957031 41.94277344 4.31640625 42.76953125 C4.27974854 43.50792236 4.24309082 44.24631348 4.20532227 45.00708008 C4 47 4 47 3 50 C-2.28050604 51.66752822 -7.50546433 52.41129975 -13 53 C-13 52.34 -13 51.68 -13 51 C-13.99 50.34 -14.98 49.68 -16 49 C-13.20869212 48.49792321 -10.41699129 47.99824925 -7.625 47.5 C-6.8309375 47.35691406 -6.036875 47.21382812 -5.21875 47.06640625 C0.7734375 46 0.7734375 46 3 46 C2.6988925 34.59451369 2.09659412 23.60283093 -0.37890625 12.4453125 C-1.9275 3.855 -1.9275 3.855 0 0 Z " fill="#F7DBDD" transform="translate(87,60)"/>
<path d="M0 0 C0.99 0.66 1.98 1.32 3 2 C2.443125 2.02578125 1.88625 2.0515625 1.3125 2.078125 C-4.416755 2.50394801 -9.22729412 3.68085202 -14 7 C-14.66 7.99 -15.32 8.98 -16 10 C-18.27734375 10.9140625 -18.27734375 10.9140625 -20.9375 11.625 C-21.81277344 11.86476563 -22.68804687 12.10453125 -23.58984375 12.3515625 C-24.38519531 12.56554688 -25.18054688 12.77953125 -26 13 C-26.99 13.33 -27.98 13.66 -29 14 C-30.37167222 14.19214086 -31.7472701 14.35765152 -33.125 14.5 C-36.7733052 14.56970405 -36.7733052 14.56970405 -38 16 C-40.70108504 15.909084 -43.36930311 15.76259234 -46.0625 15.5625 C-46.82111328 15.51029297 -47.57972656 15.45808594 -48.36132812 15.40429688 C-50.24121722 15.27424165 -52.12065685 15.13771962 -54 15 C-54 14.67 -54 14.34 -54 14 C-53.030625 13.98582031 -52.06125 13.97164062 -51.0625 13.95703125 C-36.71117323 13.53573112 -24.43707094 10.06970365 -12.13452148 2.59155273 C-7.9219081 0.11742166 -4.85486152 -0.53036302 0 0 Z " fill="#B1414B" transform="translate(150,9)"/>
<path d="M0 0 C0.66 0.33 1.32 0.66 2 1 C1.401875 2.134375 0.80375 3.26875 0.1875 4.4375 C-3.97023373 12.76771119 -6.14393498 20.92513326 -6.09765625 30.2734375 C-6.09443359 31.42714844 -6.09121094 32.58085938 -6.08789062 33.76953125 C-6.07951172 34.95933594 -6.07113281 36.14914063 -6.0625 37.375 C-6.05798828 38.58800781 -6.05347656 39.80101562 -6.04882812 41.05078125 C-6.03708354 44.03390507 -6.0206584 47.01692679 -6 50 C-9.1258627 43.74827461 -9.1258627 43.74827461 -8.9140625 39.5625 C-8.87023437 38.66660156 -8.82640625 37.77070312 -8.78125 36.84765625 C-8.7296875 35.90792969 -8.678125 34.96820313 -8.625 34 C-8.58117187 33.09121094 -8.53734375 32.18242188 -8.4921875 31.24609375 C-7.56441908 13.12883815 -7.56441908 13.12883815 -5 8 C-5.66 8.66 -6.32 9.32 -7 10 C-9.65537372 10.56520003 -12.29144713 10.73788198 -15 11 C-11.12785313 8.05752942 -7.13928768 5.29578676 -3.14453125 2.5234375 C-1.11786223 1.17351308 -1.11786223 1.17351308 0 0 Z " fill="#AD333C" transform="translate(184,66)"/>
<path d="M0 0 C-0.33 0.33 -0.66 0.66 -1 1 C-0.01 1.66 0.98 2.32 2 3 C-1.24871916 3.67301289 -4.49916379 4.3372951 -7.75 5 C-8.67039062 5.19078125 -9.59078125 5.3815625 -10.5390625 5.578125 C-11.42851563 5.75859375 -12.31796875 5.9390625 -13.234375 6.125 C-14.05131836 6.29257813 -14.86826172 6.46015625 -15.70996094 6.6328125 C-18 7 -18 7 -22 7 C-22 5.35 -22 3.7 -22 2 C-18.7099087 1.46886618 -15.4177531 0.95185229 -12.125 0.4375 C-10.71927734 0.21030273 -10.71927734 0.21030273 -9.28515625 -0.02148438 C-7.94130859 -0.2293457 -7.94130859 -0.2293457 -6.5703125 -0.44140625 C-5.74289551 -0.57232666 -4.91547852 -0.70324707 -4.06298828 -0.83813477 C-2 -1 -2 -1 0 0 Z " fill="#FAE4E7" transform="translate(134,87)"/>
<path d="M0 0 C0.33 0 0.66 0 1 0 C1.02703381 1.93742341 1.04641125 3.87495479 1.0625 5.8125 C1.07410156 6.89144531 1.08570312 7.97039062 1.09765625 9.08203125 C1 12 1 12 0 15 C-5.28050604 16.66752822 -10.50546433 17.41129975 -16 18 C-16 17.34 -16 16.68 -16 16 C-16.99 15.34 -17.98 14.68 -19 14 C-16.20869212 13.49792321 -13.41699129 12.99824925 -10.625 12.5 C-9.8309375 12.35691406 -9.036875 12.21382812 -8.21875 12.06640625 C-2.2265625 11 -2.2265625 11 0 11 C0 7.37 0 3.74 0 0 Z " fill="#F4D5D6" transform="translate(90,95)"/>
<path d="M0 0 C0.33 0 0.66 0 1 0 C3.61281488 5.87883349 3.18328202 11.70731728 3 18 C18.44123446 17.91539312 18.44123446 17.91539312 33 14 C34.99960012 13.960008 37.00047242 13.95653201 39 14 C39.495 14.99 39.495 14.99 40 16 C27.20602331 18.24362013 14.98924825 19.42356244 2 19 C0.82706111 12.6221448 -0.29530838 6.49678438 0 0 Z " fill="#AB2F39" transform="translate(92,71)"/>
<path d="M0 0 C2.75116234 0.95509784 5.50092088 1.91393982 8.25 2.875 C9.02730469 3.14441406 9.80460937 3.41382813 10.60546875 3.69140625 C11.35957031 3.95566406 12.11367187 4.21992188 12.890625 4.4921875 C13.58188477 4.73308105 14.27314453 4.97397461 14.98535156 5.22216797 C17.04551187 6.0175716 19.02476788 7.01238394 21 8 C16.71 7.67 12.42 7.34 8 7 C9.72531936 11.81115706 9.72531936 11.81115706 12 15 C11.625 17.1875 11.625 17.1875 11 19 C9.53983725 16.58442212 8.08181403 14.16759629 6.625 11.75 C6.2125 11.06808594 5.8 10.38617188 5.375 9.68359375 C4.97539063 9.01972656 4.57578125 8.35585938 4.1640625 7.671875 C3.79748535 7.0644043 3.4309082 6.45693359 3.05322266 5.83105469 C1.95522611 3.92215943 0.9662719 1.97837488 0 0 Z " fill="#AA3944" transform="translate(67,15)"/>
<path d="M0 0 C0.33 0 0.66 0 1 0 C0.67 3.3 0.34 6.6 0 10 C1.093125 9.484375 2.18625 8.96875 3.3125 8.4375 C7 7 7 7 10 8 C8.08527667 9.29454565 6.16814482 10.58552944 4.25 11.875 C2.64898438 12.95394531 2.64898438 12.95394531 1.015625 14.0546875 C-1.29477114 15.54507257 -3.51063964 16.85199401 -6 18 C-5.71382812 17.31550781 -5.42765625 16.63101563 -5.1328125 15.92578125 C-3.89019008 12.71638749 -2.87299966 9.48089886 -1.875 6.1875 C-1.52179687 5.02605469 -1.16859375 3.86460938 -0.8046875 2.66796875 C-0.53914063 1.78753906 -0.27359375 0.90710938 0 0 Z " fill="#B2353E" transform="translate(21,116)"/>
<path d="M0 0 C2.9375 0.75 2.9375 0.75 6 2 C6.9375 4 6.9375 4 7 6 C6.67 6.66 6.34 7.32 6 8 C5.92966231 9.87379605 5.9156978 11.75001102 5.9375 13.625 C5.95103516 15.12933594 5.95103516 15.12933594 5.96484375 16.6640625 C5.97644531 17.43492188 5.98804688 18.20578125 6 19 C4.04884575 16.07326863 2.70354342 13.2870104 1.3125 10.0625 C0.85488281 9.02222656 0.39726562 7.98195313 -0.07421875 6.91015625 C-1.00643141 3.97978311 -1.11435288 2.80276633 0 0 Z " fill="#B22C37" transform="translate(16,64)"/>
<path d="M0 0 C0.33 0.99 0.66 1.98 1 3 C0.154375 3.639375 -0.69125 4.27875 -1.5625 4.9375 C-4.3478875 7.23018924 -6.41163496 9.7335959 -8.5625 12.625 C-11.04068525 15.91462644 -13.06873974 18.42749589 -17 20 C-17.66 19.67 -18.32 19.34 -19 19 C-12.73 12.73 -6.46 6.46 0 0 Z " fill="#FCDFDF" transform="translate(186,158)"/>
<path d="M0 0 C3.3 0 6.6 0 10 0 C10.53132389 2.58157368 11.05034379 5.16461756 11.5625 7.75 C11.78969727 8.84441406 11.78969727 8.84441406 12.02148438 9.9609375 C12.74557178 13.66557073 13.09817231 16.39322322 12 20 C10.68 19.34 9.36 18.68 8 18 C8.33 12.39 8.66 6.78 9 1 C6.03 1 3.06 1 0 1 C0 0.67 0 0.34 0 0 Z " fill="#AF353C" transform="translate(96,110)"/>
<path d="M0 0 C0.33 0.66 0.66 1.32 1 2 C-1.88085938 2.14648438 -1.88085938 2.14648438 -4.76171875 2.29296875 C-8.06622021 3.33679906 -9.65499342 5.48547487 -12 8 C-13.92744062 9.78177709 -15.86497981 11.5526926 -17.8125 13.3125 C-18.78832031 14.19550781 -19.76414062 15.07851563 -20.76953125 15.98828125 C-21.87361328 16.98408203 -21.87361328 16.98408203 -23 18 C-23.66 17.67 -24.32 17.34 -25 17 C-22.59162267 14.53342768 -20.17192657 12.07826389 -17.75 9.625 C-17.06808594 8.92632812 -16.38617188 8.22765625 -15.68359375 7.5078125 C-15.01972656 6.8375 -14.35585938 6.1671875 -13.671875 5.4765625 C-13.0644043 4.85861816 -12.45693359 4.24067383 -11.83105469 3.60400391 C-7.97395448 0.22518413 -5.08293966 -0.23104271 0 0 Z " fill="#AA313D" transform="translate(55,9)"/>
<path d="M0 0 C0 0.99 0 1.98 0 3 C-5.22512279 4.46670113 -9.5814234 5.22577402 -15 5 C-12.5879397 1.26130653 -12.5879397 1.26130653 -10.3125 0.25 C-6.86266368 -0.12295528 -3.46947836 -0.05782464 0 0 Z " fill="#FDECED" transform="translate(74,110)"/>
<path d="M0 0 C0.66 1.32 1.32 2.64 2 4 C2.66 3.67 3.32 3.34 4 3 C5.97387813 7.76052962 6.0070238 10.96488101 5 16 C1.47538798 13.65025865 1.22674539 12.12608655 0.33984375 8.109375 C-0.09942448 5.38288252 -0.13771487 2.75429748 0 0 Z " fill="#FDEBEE" transform="translate(108,120)"/>
<path d="M0 0 C5.12782839 4.50627344 8.68159947 10.06130626 12 16 C12 16.66 12 17.32 12 18 C11.34 18 10.68 18 10 18 C9.34 16.35 8.68 14.7 8 13 C7.34 13 6.68 13 6 13 C6.33 13.99 6.66 14.98 7 16 C6.34 16 5.68 16 5 16 C4.89042969 15.40832031 4.78085938 14.81664062 4.66796875 14.20703125 C3.732075 9.54278029 2.67286745 6.00930117 0 2 C0 1.34 0 0.68 0 0 Z " fill="#B33038" transform="translate(61,16)"/>
<path d="M0 0 C-5.36961402 4.55249884 -7.64262586 6.39414504 -15 6 C-15.66 5.34 -16.32 4.68 -17 4 C-13.86501708 2.14223235 -11.62528568 1.79859524 -8 2 C-8 1.67 -8 1.34 -8 1 C-2.25 -1.125 -2.25 -1.125 0 0 Z " fill="#AC2C38" transform="translate(160,185)"/>
<path d="M0 0 C2.81091807 4.21637711 3.26895601 8.50654362 4.1875 13.4375 C4.37763672 14.39205078 4.56777344 15.34660156 4.76367188 16.33007812 C4.93833984 17.25111328 5.11300781 18.17214844 5.29296875 19.12109375 C5.4530542 19.9608374 5.61313965 20.80058105 5.77807617 21.66577148 C6.00606616 24.06380481 5.73144891 25.72164657 5 28 C5 27.34 5 26.68 5 26 C4.34 26 3.68 26 3 26 C0.88838269 8.14350797 0.88838269 8.14350797 0 0 Z " fill="#B3494F" transform="translate(84,61)"/>
<path d="M0 0 C2.64 0 5.28 0 8 0 C8 0.66 8 1.32 8 2 C10.64 2 13.28 2 16 2 C16 2.33 16 2.66 16 3 C10.72 3.66 5.44 4.32 0 5 C0 3.35 0 1.7 0 0 Z " fill="#F7D8DA" transform="translate(112,89)"/>
<path d="M0 0 C3.3 0 6.6 0 10 0 C6.75136571 2.16575619 3.39377143 3.62352411 -0.1875 5.125 C-0.84169922 5.40214844 -1.49589844 5.67929688 -2.16992188 5.96484375 C-3.77879012 6.64597045 -5.38924215 7.32335403 -7 8 C-7 6.35 -7 4.7 -7 3 C-4.03 3.495 -4.03 3.495 -1 4 C-0.67 2.68 -0.34 1.36 0 0 Z " fill="#B1313F" transform="translate(71,179)"/>
<path d="M0 0 C0 0.33 0 0.66 0 1 C-3.45746016 1.83698495 -6.91610489 2.66896676 -10.375 3.5 C-11.85226563 3.85771484 -11.85226563 3.85771484 -13.359375 4.22265625 C-14.30039063 4.44824219 -15.24140625 4.67382812 -16.2109375 4.90625 C-17.51490479 5.22045898 -17.51490479 5.22045898 -18.84521484 5.54101562 C-21 6 -21 6 -23 6 C-22.34 4.35 -21.68 2.7 -21 1 C-20.22914062 1.01160156 -19.45828125 1.02320312 -18.6640625 1.03515625 C-17.15972656 1.04869141 -17.15972656 1.04869141 -15.625 1.0625 C-14.12839844 1.07990234 -14.12839844 1.07990234 -12.6015625 1.09765625 C-8.27243452 0.93515145 -4.588343 -0.07400553 0 0 Z " fill="#AE353B" transform="translate(80,107)"/>
<path d="M0 0 C0 0.66 0 1.32 0 2 C-1.32 2 -2.64 2 -4 2 C-4 2.66 -4 3.32 -4 4 C-6.22907395 4.47959778 -8.45826297 4.9586608 -10.6875 5.4375 C-11.92886719 5.70433594 -13.17023438 5.97117187 -14.44921875 6.24609375 C-17.29612015 6.85055136 -20.14455626 7.43764684 -23 8 C-23 7.34 -23 6.68 -23 6 C-19.54289448 4.99572108 -16.08412303 3.9973056 -12.625 3 C-11.64015625 2.71382813 -10.6553125 2.42765625 -9.640625 2.1328125 C-8.69960937 1.86210938 -7.75859375 1.59140625 -6.7890625 1.3125 C-5.91975098 1.06113281 -5.05043945 0.80976562 -4.15478516 0.55078125 C-2 0 -2 0 0 0 Z " fill="#AC3A42" transform="translate(151,85)"/>
<path d="M0 0 C5 2 5 2 7.4375 3.125 C10.41245626 4.14083872 12.87765691 4.14522526 16 4 C16 3.34 16 2.68 16 2 C17.98 2 19.96 2 22 2 C19.53411834 4.70072754 17.67083103 5.80586535 13.94921875 6.23828125 C8.43348212 6.41928124 5.36459729 5.70990769 1 2 C0.67 1.34 0.34 0.68 0 0 Z " fill="#AA333F" transform="translate(41,185)"/>
<path d="M0 0 C0.66 0 1.32 0 2 0 C2 0.66 2 1.32 2 2 C3.65 2 5.3 2 7 2 C7.33 4.31 7.66 6.62 8 9 C8.66 9 9.32 9 10 9 C10.33 9.99 10.66 10.98 11 12 C10.01 12 9.02 12 8 12 C5.95703125 9.62890625 5.95703125 9.62890625 3.8125 6.5625 C3.09707031 5.55316406 2.38164062 4.54382813 1.64453125 3.50390625 C0 1 0 1 0 0 Z " fill="#B12C35" transform="translate(133,176)"/>
<path d="M0 0 C0.99 0.33 1.98 0.66 3 1 C3.87890625 2.92578125 3.87890625 2.92578125 4.5625 5.3125 C5.46737196 8.40542393 6.50913286 11.14299962 8 14 C8.67966676 15.66140763 9.34938905 17.32700041 10 19 C9.34 19.33 8.68 19.66 8 20 C6.66379191 16.85537996 5.33151712 13.70910887 4 10.5625 C3.6184375 9.66466797 3.236875 8.76683594 2.84375 7.84179688 C2.4828125 6.98779297 2.121875 6.13378906 1.75 5.25390625 C1.41484375 4.46314697 1.0796875 3.6723877 0.734375 2.85766602 C0 1 0 1 0 0 Z " fill="#AB353C" transform="translate(118,146)"/>
<path d="M0 0 C0 0.66 0 1.32 0 2 C-1.60256108 2.50512244 -3.20711792 3.00391627 -4.8125 3.5 C-6.15248047 3.91765625 -6.15248047 3.91765625 -7.51953125 4.34375 C-10 5 -10 5 -13 5 C-10.09360225 0.64040337 -5.20498689 -2.29019423 0 0 Z " fill="#AF313A" transform="translate(134,17)"/>
<path d="M0 0 C0 3 0 3 -2 6 C-2.66 6 -3.32 6 -4 6 C-3.835 7.258125 -3.67 8.51625 -3.5 9.8125 C-3.17841759 12.26456585 -3 14.51650694 -3 17 C-5.42237987 14.57762013 -5.85886453 12.53791432 -6.24609375 9.17578125 C-5.7888474 5.13314288 -2.87327289 2.66506471 0 0 Z " fill="#AA3944" transform="translate(15,139)"/>
<path d="M0 0 C0.66 0.66 1.32 1.32 2 2 C1.67 2.99 1.34 3.98 1 5 C0.01 4.67 -0.98 4.34 -2 4 C-4.51083114 5.25541557 -4.87125446 6.50063488 -6 9 C-7.65 9 -9.3 9 -11 9 C-7.56638098 5.36440339 -4.2026393 2.63886654 0 0 Z " fill="#AE3439" transform="translate(28,130)"/>
<path d="M0 0 C1.9375 0.8125 1.9375 0.8125 4 2 C4.33 2.99 4.66 3.98 5 5 C4.01 5.99 3.02 6.98 2 8 C0.4375 6.25 0.4375 6.25 -1 4 C-0.6875 1.75 -0.6875 1.75 0 0 Z " fill="#FEEFEF" transform="translate(130,175)"/>
<path d="M0 0 C1.32 0.33 2.64 0.66 4 1 C4.33 2.98 4.66 4.96 5 7 C4.01 7.33 3.02 7.66 2 8 C-0.1519437 4.77208445 -0.20086443 3.71599191 0 0 Z " fill="#FDEFF1" transform="translate(122,163)"/>
<path d="M0 0 C3.30830483 4.4110731 3.57852777 5.69682873 3 11 C2.01 11.99 1.02 12.98 0 14 C0 9.38 0 4.76 0 0 Z " fill="#A93943" transform="translate(188,44)"/>
<path d="M0 0 C0.66 0.33 1.32 0.66 2 1 C1.37755401 2.27208622 0.75193233 3.54261882 0.125 4.8125 C-0.22304687 5.52019531 -0.57109375 6.22789063 -0.9296875 6.95703125 C-2 9 -2 9 -4 12 C-3.67 10.02 -3.34 8.04 -3 6 C-3.99 5.67 -4.98 5.34 -6 5 C-4.02 3.35 -2.04 1.7 0 0 Z " fill="#AB4B57" transform="translate(184,66)"/>
<path d="M0 0 C1.485 0.99 1.485 0.99 3 2 C3.1875 4.625 3.1875 4.625 3 7 C2.01 7.33 1.02 7.66 0 8 C-0.38063221 5.6739143 -0.71269945 3.33944736 -1 1 C-0.67 0.67 -0.34 0.34 0 0 Z " fill="#FDF3F3" transform="translate(82,46)"/>
<path d="M0 0 C-0.33 1.65 -0.66 3.3 -1 5 C-3.64 5 -6.28 5 -9 5 C-9 4.34 -9 3.68 -9 3 C-2.25 0 -2.25 0 0 0 Z " fill="#B0353B" transform="translate(161,81)"/>
<path d="M0 0 C0.33 0.66 0.66 1.32 1 2 C-0.65 4.31 -2.3 6.62 -4 9 C-4.99 8.67 -5.98 8.34 -7 8 C-6.02133662 6.85373678 -5.04205413 5.70800212 -4.0625 4.5625 C-3.51722656 3.92441406 -2.97195312 3.28632813 -2.41015625 2.62890625 C-1.63204305 1.73008851 -0.84063472 0.84063472 0 0 Z " fill="#FBDEDD" transform="translate(164,180)"/>
<path d="M0 0 C1.32 0.33 2.64 0.66 4 1 C1.69 3.31 -0.62 5.62 -3 8 C-3.33 6.68 -3.66 5.36 -4 4 C-2.3125 1.6875 -2.3125 1.6875 0 0 Z " fill="#AD2738" transform="translate(180,160)"/>
<path d="M0 0 C1.32 0.33 2.64 0.66 4 1 C1.36 3.64 -1.28 6.28 -4 9 C-4.33 8.01 -4.66 7.02 -5 6 C-4.01 5.67 -3.02 5.34 -2 5 C-2 4.34 -2 3.68 -2 3 C-1.34 3 -0.68 3 0 3 C0 2.01 0 1.02 0 0 Z " fill="#F6D3D1" transform="translate(20,32)"/>
<path d="M0 0 C2.5999298 2.51027705 4.99091227 4.9863684 7 8 C7 8.66 7 9.32 7 10 C5.02 9.34 3.04 8.68 1 8 C1.66 7.67 2.32 7.34 3 7 C2.505 6.21625 2.01 5.4325 1.5 4.625 C0 2 0 2 0 0 Z " fill="#A9454D" transform="translate(126,175)"/>
<path d="M0 0 C0.66 0 1.32 0 2 0 C2.28875 0.763125 2.5775 1.52625 2.875 2.3125 C3.96269013 5.15029308 3.96269013 5.15029308 6 8 C5.625 10.1875 5.625 10.1875 5 12 C4.15885829 10.56705502 3.32734313 9.12845595 2.5 7.6875 C1.80390625 6.48673828 1.80390625 6.48673828 1.09375 5.26171875 C0 3 0 3 0 0 Z " fill="#AB2C37" transform="translate(73,22)"/>
<path d="M0 0 C3.68006822 3.38168431 5.9785845 6.42521756 8 11 C7.01 11 6.02 11 5 11 C4.16151196 9.54462432 3.32936066 8.08559627 2.5 6.625 C1.80390625 5.40683594 1.80390625 5.40683594 1.09375 4.1640625 C0 2 0 2 0 0 Z " fill="#AE3B44" transform="translate(61,16)"/>
<path d="M0 0 C0.66 0 1.32 0 2 0 C2 0.66 2 1.32 2 2 C2.66 2 3.32 2 4 2 C5.6875 4.3125 5.6875 4.3125 7 7 C6.67 7.99 6.34 8.98 6 10 C3.25722422 6.80009492 1.3697164 3.99500618 0 0 Z " fill="#AE363F" transform="translate(127,166)"/>
<path d="M0 0 C0.66 0.33 1.32 0.66 2 1 C-0.31 3.31 -2.62 5.62 -5 8 C-5.33 6.68 -5.66 5.36 -6 4 C-4.68 3.67 -3.36 3.34 -2 3 C-2 2.34 -2 1.68 -2 1 C-1.34 0.67 -0.68 0.34 0 0 Z " fill="#AC2839" transform="translate(166,176)"/>
<path d="M0 0 C3.93846154 3.32307692 3.93846154 3.32307692 4.25 6.75 C4.1675 7.4925 4.085 8.235 4 9 C3.01 8.67 2.02 8.34 1 8 C0.67 5.36 0.34 2.72 0 0 Z " fill="#AE2934" transform="translate(185,135)"/>
<path d="M0 0 C0.33 0.99 0.66 1.98 1 3 C-0.32 3.33 -1.64 3.66 -3 4 C-3 3.34 -3 2.68 -3 2 C-4.32 1.67 -5.64 1.34 -7 1 C-3.375 -1.125 -3.375 -1.125 0 0 Z " fill="#FADCDD" transform="translate(47,118)"/>
<path d="M0 0 C0.66 0 1.32 0 2 0 C2 2.97 2 5.94 2 9 C1.34 8.67 0.68 8.34 0 8 C-1.27536232 2.55072464 -1.27536232 2.55072464 0 0 Z " fill="#FEF2F5" transform="translate(87,60)"/>
<path d="M0 0 C-5.41538462 3.07692308 -5.41538462 3.07692308 -8.375 2.6875 C-9.179375 2.3471875 -9.179375 2.3471875 -10 2 C-6.19832777 -0.53444815 -4.31588991 -1.33941411 0 0 Z " fill="#AF444B" transform="translate(66,116)"/>
<path d="M0 0 C1.5 1 1.5 1 3 3 C3.27345479 5.71846235 3.13491285 8.25677199 3 11 C0.43383368 7.15075052 0.44902324 4.5650696 0 0 Z " fill="#AA2F3A" transform="translate(115,133)"/>
<path d="M0 0 C-2.26185454 2.26185454 -3.96983561 3.03921617 -7 4 C-7.99 3.67 -8.98 3.34 -10 3 C-7.29536552 -0.8183075 -4.37912428 -0.24787496 0 0 Z " fill="#A92E35" transform="translate(54,113)"/>
<path d="M0 0 C2.625 -0.1875 2.625 -0.1875 5 0 C5 0.99 5 1.98 5 3 C2.69 3 0.38 3 -2 3 C-1.34 2.01 -0.68 1.02 0 0 Z " fill="#FFF5F5" transform="translate(61,112)"/>
<path d="M0 0 C2.31 1.98 4.62 3.96 7 6 C6.01 6.33 5.02 6.66 4 7 C3.34 6.01 2.68 5.02 2 4 C1.01 4.495 1.01 4.495 0 5 C0 3.35 0 1.7 0 0 Z " fill="#AE343E" transform="translate(169,25)"/>
<path d="M0 0 C1.32 0 2.64 0 4 0 C4 0.99 4 1.98 4 3 C4.66 3 5.32 3 6 3 C6.33 3.99 6.66 4.98 7 6 C6.01 6 5.02 6 4 6 C1.8125 3 1.8125 3 0 0 Z " fill="#AE393C" transform="translate(137,182)"/>
<path d="M0 0 C0.66 0 1.32 0 2 0 C2.66 1.65 3.32 3.3 4 5 C2.35 5 0.7 5 -1 5 C-0.67 3.35 -0.34 1.7 0 0 Z " fill="#B52832" transform="translate(125,177)"/>
<path d="M0 0 C0.33 0.99 0.66 1.98 1 3 C1.66 3.33 2.32 3.66 3 4 C1.35 5.32 -0.3 6.64 -2 8 C-2 4.79604584 -1.25664978 2.90600261 0 0 Z " fill="#A6494F" transform="translate(18,126)"/>
<path d="M0 0 C-3.72965139 2.03435531 -5.66905042 3 -10 3 C-10 2.34 -10 1.68 -10 1 C-8.71073008 0.63720544 -7.41846728 0.28503302 -6.125 -0.0625 C-5.40570313 -0.25972656 -4.68640625 -0.45695312 -3.9453125 -0.66015625 C-2 -1 -2 -1 0 0 Z " fill="#B1454C" transform="translate(138,90)"/>
<path d="M0 0 C-0.33 0.99 -0.66 1.98 -1 3 C-3.31 3 -5.62 3 -8 3 C-5.53387212 -0.1151089 -3.89156016 -0.31553191 0 0 Z " fill="#FEFAF9" transform="translate(139,86)"/>
<path d="M0 0 C0.66 1.32 1.32 2.64 2 4 C1.01 4.99 0.02 5.98 -1 7 C-1.66 5.68 -2.32 4.36 -3 3 C-2.01 2.01 -1.02 1.02 0 0 Z " fill="#FBDFE5" transform="translate(85,51)"/>
</svg>
