<?xml version="1.0" encoding="UTF-8"?>
<!DOCTYPE svg PUBLIC "-//W3C//DTD SVG 1.1//EN" "http://www.w3.org/Graphics/SVG/1.1/DTD/svg11.dtd">
<svg xmlns="http://www.w3.org/2000/svg" version="1.1" width="774px" height="177px" style="shape-rendering:geometricPrecision; text-rendering:geometricPrecision; image-rendering:optimizeQuality; fill-rule:evenodd; clip-rule:evenodd" xmlns:xlink="http://www.w3.org/1999/xlink">
<g><path style="opacity:0.998" fill="#b91f28" d="M 128.5,6.5 C 131.625,6.8647 134.625,7.69803 137.5,9C 148.732,19.5631 159.232,30.7297 169,42.5C 170.027,46.1799 169.194,49.3466 166.5,52C 141.913,71.1408 113.913,80.6408 82.5,80.5C 80.0834,55.5764 71.7501,32.9097 57.5,12.5C 57.8333,12.1667 58.1667,11.8333 58.5,11.5C 75.5808,20.6943 93.2474,21.8609 111.5,15C 117.129,11.8168 122.795,8.98345 128.5,6.5 Z"/></g>
<g><path style="opacity:0.999" fill="#b91f28" d="M 44.5,6.5 C 48.8859,7.36603 52.3859,9.69936 55,13.5C 72.4096,37.568 80.9096,64.568 80.5,94.5C 55.6541,96.0571 33.3207,104.224 13.5,119C 12.6683,119.688 12.0016,119.521 11.5,118.5C 23.0596,95.5118 21.8929,73.1785 8,51.5C 6.95948,46.5602 7.62615,41.8935 10,37.5C 19.1667,28.3333 28.3333,19.1667 37.5,10C 39.7133,8.38383 42.0466,7.21716 44.5,6.5 Z"/></g>
<g><path style="opacity:0.931" fill="#fbfbfb" d="M 323.5,49.5 C 332.931,48.6464 341.931,50.1464 350.5,54C 357.512,62.1286 358.346,70.9619 353,80.5C 344.543,90.0759 334.043,93.4092 321.5,90.5C 321.5,88.8333 321.5,87.1667 321.5,85.5C 340.776,88.06 347.609,80.06 342,61.5C 337.994,56.9966 332.994,54.6632 327,54.5C 323.572,55.3958 320.072,56.0624 316.5,56.5C 315.014,78.181 315.181,99.8477 317,121.5C 320.049,122.61 323.216,123.277 326.5,123.5C 326.5,124.833 326.5,126.167 326.5,127.5C 315.904,126.762 305.238,126.762 294.5,127.5C 294.5,126.167 294.5,124.833 294.5,123.5C 298.164,123.797 301.33,122.797 304,120.5C 304.667,99.5 304.667,78.5 304,57.5C 303.5,56.3333 302.667,55.5 301.5,55C 299.19,54.5034 296.857,54.3367 294.5,54.5C 294.5,53.1667 294.5,51.8333 294.5,50.5C 304.348,50.8271 314.014,50.4938 323.5,49.5 Z"/></g>
<g><path style="opacity:0.916" fill="#fafafa" d="M 522.5,48.5 C 531.275,49.288 539.942,50.788 548.5,53C 549.022,53.5613 549.355,54.228 549.5,55C 547.879,60.0381 547.213,65.2048 547.5,70.5C 545.833,70.5 544.167,70.5 542.5,70.5C 542.82,67.1016 542.487,63.7683 541.5,60.5C 524.372,50.7342 509.205,53.0675 496,67.5C 487.346,86.0813 490.512,102.248 505.5,116C 519.773,123.434 533.94,123.268 548,115.5C 549.059,115.63 549.892,116.13 550.5,117C 549.406,118.78 548.406,120.614 547.5,122.5C 530.401,130.611 513.401,130.444 496.5,122C 480.485,109.793 475.318,93.9598 481,74.5C 485.167,63.6667 492.667,56.1667 503.5,52C 509.884,50.3265 516.218,49.1598 522.5,48.5 Z"/></g>
<g><path style="opacity:0.922" fill="#fafafa" d="M 593.5,48.5 C 624.045,49.5421 637.545,65.2087 634,95.5C 628.317,116.608 614.484,127.608 592.5,128.5C 567.668,127.167 554.668,114 553.5,89C 554.995,63.672 568.329,50.172 593.5,48.5 Z M 588.5,54.5 C 607.102,53.6036 618.269,62.2702 622,80.5C 625.089,94.9906 621.589,107.491 611.5,118C 588.601,127.634 573.768,120.468 567,96.5C 564.387,86.1317 565.387,76.1317 570,66.5C 574.668,60.089 580.835,56.089 588.5,54.5 Z"/></g>
<g><path style="opacity:0.912" fill="#fafafa" d="M 773.5,60.5 C 773.5,65.5 773.5,70.5 773.5,75.5C 765.925,88.6139 754.592,93.6139 739.5,90.5C 739.579,89.0695 739.246,87.7362 738.5,86.5C 739.167,86.1667 739.833,85.8333 740.5,85.5C 753.244,88.4218 760.577,83.4218 762.5,70.5C 761.28,60.1136 755.447,54.7803 745,54.5C 741.255,55.4884 737.422,56.155 733.5,56.5C 733.333,77.5026 733.5,98.5026 734,119.5C 734.374,120.416 734.874,121.25 735.5,122C 738.432,122.953 741.432,123.453 744.5,123.5C 744.5,124.833 744.5,126.167 744.5,127.5C 733.639,126.856 722.639,126.856 711.5,127.5C 711.5,126.167 711.5,124.833 711.5,123.5C 714.883,123.743 718.049,123.076 721,121.5C 722.12,110.555 722.62,99.555 722.5,88.5C 722.333,78.8333 722.167,69.1667 722,59.5C 721.727,57.6711 720.893,56.1711 719.5,55C 716.854,54.5026 714.187,54.3359 711.5,54.5C 711.5,53.1667 711.5,51.8333 711.5,50.5C 726.179,50.3549 740.846,50.1882 755.5,50C 763.607,50.2095 769.607,53.7095 773.5,60.5 Z"/></g>
<g><path style="opacity:0.928" fill="#fbfbfb" d="M 216.5,50.5 C 226.833,50.5 237.167,50.5 247.5,50.5C 247.5,51.8333 247.5,53.1667 247.5,54.5C 243.993,53.9935 240.826,54.6602 238,56.5C 237.333,66.1667 237.333,75.8333 238,85.5C 249,75.8333 259.333,65.5 269,54.5C 269.49,53.2068 269.657,51.8734 269.5,50.5C 275.833,50.5 282.167,50.5 288.5,50.5C 288.5,51.8333 288.5,53.1667 288.5,54.5C 284.537,54.0889 280.87,54.9222 277.5,57C 267.656,66.0117 257.989,75.1784 248.5,84.5C 261.322,97.1545 274.322,109.654 287.5,122C 288.793,122.49 290.127,122.657 291.5,122.5C 291.5,124.167 291.5,125.833 291.5,127.5C 286.266,126.815 280.933,126.648 275.5,127C 262.696,115.196 250.196,103.03 238,90.5C 237.333,100.833 237.333,111.167 238,121.5C 240.997,122.866 244.164,123.533 247.5,123.5C 247.5,124.833 247.5,126.167 247.5,127.5C 237.131,126.464 226.798,126.464 216.5,127.5C 216.5,126.167 216.5,124.833 216.5,123.5C 219.48,123.38 222.313,122.713 225,121.5C 226.106,110.713 226.606,99.8801 226.5,89C 226.594,77.7928 226.094,66.6261 225,55.5C 222.281,54.5562 219.448,54.2229 216.5,54.5C 216.5,53.1667 216.5,51.8333 216.5,50.5 Z"/></g>
<g><path style="opacity:0.903" fill="#fbfbfb" d="M 359.5,50.5 C 366.175,50.3337 372.842,50.5004 379.5,51C 395.88,71.5914 412.38,92.0914 429,112.5C 429.833,93.8244 429.666,75.1577 428.5,56.5C 425.667,55.0668 422.667,54.4001 419.5,54.5C 419.5,53.1667 419.5,51.8333 419.5,50.5C 428.167,50.5 436.833,50.5 445.5,50.5C 445.5,51.8333 445.5,53.1667 445.5,54.5C 443.143,54.3367 440.81,54.5034 438.5,55C 437.107,56.1711 436.273,57.6711 436,59.5C 435.293,82.5102 435.46,105.51 436.5,128.5C 431.82,128.625 427.654,127.291 424,124.5C 408,104.5 392,84.5 376,64.5C 375.333,81.5 375.333,98.5 376,115.5C 376.061,121.797 379.228,124.13 385.5,122.5C 385.5,124.167 385.5,125.833 385.5,127.5C 376.977,126.992 368.31,126.992 359.5,127.5C 359.5,126.167 359.5,124.833 359.5,123.5C 362.518,123.296 365.518,122.963 368.5,122.5C 369.634,100.864 369.8,79.1973 369,57.5C 366.454,54.8144 363.287,53.8144 359.5,54.5C 359.5,53.1667 359.5,51.8333 359.5,50.5 Z"/></g>
<g><path style="opacity:0.939" fill="#fafafa" d="M 669.5,49.5 C 677.767,49.0381 685.767,50.2048 693.5,53C 703.225,63.8523 702.558,74.1856 691.5,84C 687.912,85.963 684.245,87.6297 680.5,89C 690.116,102.157 699.782,114.991 709.5,127.5C 704.348,127.049 699.348,126.883 694.5,127C 683.854,113.503 673.854,99.6699 664.5,85.5C 677.939,87.5226 685.939,82.0226 688.5,69C 687.458,59.4592 682.125,54.6258 672.5,54.5C 669.08,54.7839 665.747,55.4506 662.5,56.5C 661.334,78.159 661.167,99.8256 662,121.5C 665.049,122.61 668.216,123.277 671.5,123.5C 671.5,124.833 671.5,126.167 671.5,127.5C 660.904,126.762 650.238,126.762 639.5,127.5C 639.5,126.167 639.5,124.833 639.5,123.5C 642.836,123.533 646.003,122.866 649,121.5C 651,99.8333 651,78.1667 649,56.5C 646.174,54.6602 643.007,53.9935 639.5,54.5C 639.5,53.1667 639.5,51.8333 639.5,50.5C 649.681,50.8274 659.681,50.494 669.5,49.5 Z"/></g>
<g><path style="opacity:0.999" fill="#b91f28" d="M 162.5,57.5 C 163.376,57.3691 164.043,57.7025 164.5,58.5C 155.942,74.5227 154.442,91.1894 160,108.5C 163,114.833 166,121.167 169,127.5C 169.455,131.814 168.455,135.814 166,139.5C 157.167,148.333 148.333,157.167 139.5,166C 135.962,168.846 131.962,169.846 127.5,169C 112.869,153.241 103.369,134.741 99,113.5C 97.3,104.232 96.1333,94.8991 95.5,85.5C 95.7092,84.0055 96.3759,82.8388 97.5,82C 121.602,79.8061 143.269,71.6395 162.5,57.5 Z"/></g>
<g><path style="opacity:0.999" fill="#b91f28" d="M 75.5,96.5 C 81.8333,96.5 88.1667,96.5 94.5,96.5C 96.1662,121.17 104.166,143.503 118.5,163.5C 118.167,163.833 117.833,164.167 117.5,164.5C 94.3603,153.31 72.027,154.81 50.5,169C 45.3521,170.109 40.6855,169.109 36.5,166C 27.6667,157.167 18.8333,148.333 10,139.5C 4.89838,133.369 5.39838,127.869 11.5,123C 30.4566,108.353 51.79,99.5195 75.5,96.5 Z"/></g>
</svg>
