<?xml version="1.0" encoding="UTF-8"?>
<!DOCTYPE svg PUBLIC "-//W3C//DTD SVG 1.1//EN" "http://www.w3.org/Graphics/SVG/1.1/DTD/svg11.dtd">
<svg xmlns="http://www.w3.org/2000/svg" version="1.1" width="650px" height="300px" style="shape-rendering:geometricPrecision; text-rendering:geometricPrecision; image-rendering:optimizeQuality; fill-rule:evenodd; clip-rule:evenodd" xmlns:xlink="http://www.w3.org/1999/xlink">
<g><path style="opacity:0.972" fill="#ad2c2a" d="M 82.5,77.5 C 67.5,82.8333 52.5,88.1667 37.5,93.5C 38.9383,82.2521 36.4383,71.9188 30,62.5C 28,58.8333 28,55.1667 30,51.5C 37.9164,43.247 46.0831,35.4137 54.5,28C 56.5,27.3333 58.5,27.3333 60.5,28C 72.8375,42.1831 80.1708,58.6831 82.5,77.5 Z"/></g>
<g><path style="opacity:0.968" fill="#ad2c2a" d="M 102.5,80.5 C 95.9876,66.1286 89.9876,51.4619 84.5,36.5C 96.1837,37.4127 106.85,34.5794 116.5,28C 119.928,27.2989 123.262,27.6323 126.5,29C 134.365,36.5302 141.865,44.3635 149,52.5C 149.667,54.8333 149.667,57.1667 149,59.5C 135.685,71.2391 120.185,78.2391 102.5,80.5 Z"/></g>
<g><path style="opacity:0.889" fill="#8c2621" d="M 69.5,32.5 C 70.609,32.5569 71.609,32.8902 72.5,33.5C 79.0295,49.7547 85.3628,66.088 91.5,82.5C 90.8333,82.5 90.1667,82.5 89.5,82.5C 87.4056,77.3151 85.0722,72.3151 82.5,67.5C 79.8684,56.9357 75.8684,46.9357 70.5,37.5C 70.3713,35.7839 70.038,34.1172 69.5,32.5 Z"/></g>
<g><path style="opacity:0.985" fill="#922723" d="M 72.5,33.5 C 73.1667,33.8333 73.8333,34.1667 74.5,34.5C 81.1073,50.0491 87.4406,65.7157 93.5,81.5C 92.8333,81.8333 92.1667,82.1667 91.5,82.5C 85.3628,66.088 79.0295,49.7547 72.5,33.5 Z"/></g>
<g><path style="opacity:0.314" fill="#86251f" d="M 69.5,32.5 C 70.038,34.1172 70.3713,35.7839 70.5,37.5C 68.6969,35.5187 67.0303,33.352 65.5,31C 67.1398,30.6522 68.4732,31.1522 69.5,32.5 Z"/></g>
<g><path style="opacity:0.987" fill="#982824" d="M 74.5,34.5 C 75.8333,34.8333 77.1667,35.1667 78.5,35.5C 84.5,50.8333 90.5,66.1667 96.5,81.5C 95.5,81.5 94.5,81.5 93.5,81.5C 87.4406,65.7157 81.1073,50.0491 74.5,34.5 Z"/></g>
<g><path style="opacity:0.979" fill="#9f2926" d="M 78.5,35.5 C 79.609,35.5569 80.609,35.8902 81.5,36.5C 83.4058,43.2358 86.0725,49.5692 89.5,55.5C 92.2744,64.3821 95.6078,73.0488 99.5,81.5C 98.5,81.5 97.5,81.5 96.5,81.5C 90.5,66.1667 84.5,50.8333 78.5,35.5 Z"/></g>
<g><path style="opacity:0.995" fill="#a32b27" d="M 81.5,36.5 C 82.1667,36.5 82.8333,36.5 83.5,36.5C 85.2092,42.92 87.2092,49.2534 89.5,55.5C 86.0725,49.5692 83.4058,43.2358 81.5,36.5 Z"/></g>
<g><path style="opacity:0.988" fill="#a62b28" d="M 83.5,36.5 C 83.8333,36.5 84.1667,36.5 84.5,36.5C 89.9876,51.4619 95.9876,66.1286 102.5,80.5C 101.791,81.404 100.791,81.7373 99.5,81.5C 95.6078,73.0488 92.2744,64.3821 89.5,55.5C 87.2092,49.2534 85.2092,42.92 83.5,36.5 Z"/></g>
<g><path style="opacity:0.854" fill="#706861" d="M 403.5,59.5 C 411.202,59.7909 418.869,60.4575 426.5,61.5C 426.666,66.5111 426.499,71.5111 426,76.5C 424.989,77.3366 423.822,77.67 422.5,77.5C 422.94,72.5404 420.94,69.0404 416.5,67C 394.699,61.8019 385.199,70.3019 388,92.5C 394.507,107.888 405.507,112.555 421,106.5C 421.931,104.541 422.764,102.541 423.5,100.5C 424.325,99.6143 425.325,99.281 426.5,99.5C 426.695,103.915 426.195,108.249 425,112.5C 420.495,114.881 415.662,115.881 410.5,115.5C 391.109,115.843 380.442,106.51 378.5,87.5C 379.159,71.1802 387.492,61.8469 403.5,59.5 Z"/></g>
<g><path style="opacity:0.87" fill="#706861" d="M 466.5,59.5 C 490.651,59.8094 500.818,71.8094 497,95.5C 491.271,111.121 480.104,117.621 463.5,115C 447.275,109.742 440.442,98.5753 443,81.5C 446.146,69.0331 453.979,61.6998 466.5,59.5 Z M 467.5,64.5 C 478.051,65.1799 484.884,70.5132 488,80.5C 489.356,88.5285 488.356,96.1952 485,103.5C 474.756,113.037 465.09,112.371 456,101.5C 449.127,89.3653 450.293,78.1987 459.5,68C 462.158,66.522 464.825,65.3554 467.5,64.5 Z"/></g>
<g><path style="opacity:0.861" fill="#706861" d="M 305.5,60.5 C 307.09,60.6282 308.423,61.2949 309.5,62.5C 319.521,74.0201 329.355,85.6868 339,97.5C 339.667,87.1667 339.667,76.8333 339,66.5C 337.638,64.5643 335.805,63.231 333.5,62.5C 339.167,61.1667 344.833,61.1667 350.5,62.5C 348.677,63.4909 347.177,64.8243 346,66.5C 345.667,82.1667 345.333,97.8333 345,113.5C 344.692,114.308 344.192,114.975 343.5,115.5C 332.51,103.675 321.677,91.6751 311,79.5C 310.101,89.8934 310.434,100.227 312,110.5C 313.947,111.11 315.781,111.943 317.5,113C 314.691,114.122 311.691,114.622 308.5,114.5C 305.045,114.579 301.712,114.079 298.5,113C 300.577,112.193 302.411,111.026 304,109.5C 304.226,93.1423 304.726,76.809 305.5,60.5 Z"/></g>
<g><path style="opacity:0.872" fill="#706861" d="M 514.5,60.5 C 523.559,60.1541 532.559,60.6541 541.5,62C 549.042,65.9387 551.542,72.1053 549,80.5C 547.698,84.2743 545.531,87.441 542.5,90C 547.457,96.6263 552.791,102.96 558.5,109C 561.565,110.557 564.565,112.057 567.5,113.5C 559.211,116.08 552.045,114.414 546,108.5C 541.532,101.732 536.699,95.2324 531.5,89C 541.395,86.3067 544.228,80.1401 540,70.5C 536.776,66.5896 532.609,64.923 527.5,65.5C 527.333,79.504 527.5,93.504 528,107.5C 528.309,108.766 528.809,109.933 529.5,111C 531.619,111.098 533.286,111.931 534.5,113.5C 527.833,114.833 521.167,114.833 514.5,113.5C 515.32,111.889 516.654,111.222 518.5,111.5C 519.787,95.8545 519.787,80.1878 518.5,64.5C 517.205,63.9017 515.872,63.4017 514.5,63C 513.402,62.2303 513.402,61.397 514.5,60.5 Z"/></g>
<g><path style="opacity:0.866" fill="#706861" d="M 181.5,61.5 C 188.175,61.3337 194.842,61.5004 201.5,62C 200.335,63.0836 199.002,63.9169 197.5,64.5C 196.337,70.1375 196.17,75.8041 197,81.5C 201.878,76.2905 206.378,70.7905 210.5,65C 209.643,64.3109 208.977,63.4776 208.5,62.5C 214.167,61.1667 219.833,61.1667 225.5,62.5C 216.265,67.7329 208.598,74.7329 202.5,83.5C 208.556,92.7277 215.556,101.228 223.5,109C 225.717,110.275 228.051,111.275 230.5,112C 231.833,112.667 231.833,113.333 230.5,114C 224.042,115.301 218.042,114.301 212.5,111C 206.949,104.45 201.783,97.6169 197,90.5C 196.333,97.1667 196.333,103.833 197,110.5C 198.947,111.11 200.781,111.943 202.5,113C 199.353,114.128 196.02,114.628 192.5,114.5C 189.248,114.479 186.081,114.146 183,113.5C 182.833,113.167 182.667,112.833 182.5,112.5C 184.709,111.937 186.209,110.604 187,108.5C 187.667,94.1667 187.667,79.8333 187,65.5C 184.689,64.6032 182.856,63.2699 181.5,61.5 Z"/></g>
<g><path style="opacity:0.869" fill="#706861" d="M 240.5,61.5 C 250.172,61.3335 259.839,61.5002 269.5,62C 285.476,66.5956 289.31,76.0956 281,90.5C 274.57,96.1988 267.07,98.6988 258.5,98C 257.289,97.1072 257.289,96.2739 258.5,95.5C 271.947,93.2442 277.114,85.5776 274,72.5C 269.144,66.9034 262.977,64.5701 255.5,65.5C 255.333,79.504 255.5,93.504 256,107.5C 256.309,108.766 256.809,109.933 257.5,111C 259.256,111.202 260.922,111.702 262.5,112.5C 262.291,113.086 261.957,113.586 261.5,114C 255.167,114.667 248.833,114.667 242.5,114C 242.167,113.667 241.833,113.333 241.5,113C 242.891,111.98 244.391,111.147 246,110.5C 246.833,95.1558 246.666,79.8225 245.5,64.5C 243.241,64.2155 241.574,63.2155 240.5,61.5 Z"/></g>
<g><path style="opacity:0.866" fill="#706861" d="M 576.5,61.5 C 586.557,61.1355 596.557,61.6355 606.5,63C 617.592,66.6868 621.759,74.1868 619,85.5C 613.071,95.4373 604.238,99.7706 592.5,98.5C 592.5,97.5 592.5,96.5 592.5,95.5C 602.565,94.7697 608.565,89.4364 610.5,79.5C 607.959,69.2098 601.292,64.8765 590.5,66.5C 590.333,80.8372 590.5,95.1705 591,109.5C 592.826,111.179 594.992,112.346 597.5,113C 594.016,114.132 590.349,114.632 586.5,114.5C 583.167,114.167 579.833,113.833 576.5,113.5C 578.323,112.509 579.823,111.176 581,109.5C 581.667,94.8333 581.667,80.1667 581,65.5C 579.601,64.7734 578.101,64.2734 576.5,64C 575.402,63.2303 575.402,62.397 576.5,61.5 Z"/></g>
<g><path style="opacity:0.282" fill="#86241f" d="M 144.5,67.5 C 143.833,67.5 143.167,67.5 142.5,67.5C 143.322,65.2721 144.655,64.6054 146.5,65.5C 146.145,66.5223 145.478,67.189 144.5,67.5 Z"/></g>
<g><path style="opacity:0.948" fill="#8c2621" d="M 142.5,67.5 C 143.167,67.5 143.833,67.5 144.5,67.5C 144.737,68.791 144.404,69.791 143.5,70.5C 127.504,77.4975 111.504,84.4975 95.5,91.5C 95.5,90.5 95.5,89.5 95.5,88.5C 101.804,86.3443 107.804,83.6776 113.5,80.5C 123.815,77.5072 133.482,73.1739 142.5,67.5 Z"/></g>
<g><path style="opacity:0.987" fill="#922723" d="M 143.5,70.5 C 143.443,71.609 143.11,72.609 142.5,73.5C 126.833,80.1667 111.167,86.8333 95.5,93.5C 95.5,92.8333 95.5,92.1667 95.5,91.5C 111.504,84.4975 127.504,77.4975 143.5,70.5 Z"/></g>
<g><path style="opacity:0.782" fill="#86241f" d="M 82.5,67.5 C 85.0722,72.3151 87.4056,77.3151 89.5,82.5C 88.5,82.5 87.5,82.5 86.5,82.5C 86.3404,80.847 85.6737,79.5137 84.5,78.5C 83.7265,74.8598 83.0599,71.1932 82.5,67.5 Z"/></g>
<g><path style="opacity:0.981" fill="#982824" d="M 142.5,73.5 C 142.443,74.609 142.11,75.609 141.5,76.5C 126.254,83.36 110.921,90.0267 95.5,96.5C 95.5,95.5 95.5,94.5 95.5,93.5C 111.167,86.8333 126.833,80.1667 142.5,73.5 Z"/></g>
<g><path style="opacity:0.97" fill="#9f2926" d="M 141.5,76.5 C 141.567,77.9587 141.234,79.2921 140.5,80.5C 140.167,80.5 139.833,80.5 139.5,80.5C 136.088,81.0421 133.088,82.3754 130.5,84.5C 129.508,84.3284 128.842,84.6618 128.5,85.5C 125.759,85.7073 123.426,86.7073 121.5,88.5C 120.508,88.3284 119.842,88.6618 119.5,89.5C 116.759,89.7073 114.426,90.7073 112.5,92.5C 111.508,92.3284 110.842,92.6618 110.5,93.5C 107.759,93.7073 105.426,94.7073 103.5,96.5C 102.508,96.3284 101.842,96.6618 101.5,97.5C 99.2972,97.6036 97.2972,98.2702 95.5,99.5C 95.5,98.5 95.5,97.5 95.5,96.5C 110.921,90.0267 126.254,83.36 141.5,76.5 Z"/></g>
<g><path style="opacity:0.981" fill="#a72b28" d="M 82.5,77.5 C 82.5,78.1667 82.5,78.8333 82.5,79.5C 77.2696,81.1277 72.2696,83.1277 67.5,85.5C 57.4712,88.0641 47.8045,91.3975 38.5,95.5C 38.1667,95.5 37.8333,95.5 37.5,95.5C 37.5,94.8333 37.5,94.1667 37.5,93.5C 52.5,88.1667 67.5,82.8333 82.5,77.5 Z"/></g>
<g><path style="opacity:0.554" fill="#81231d" d="M 84.5,78.5 C 85.6737,79.5137 86.3404,80.847 86.5,82.5C 84.8235,81.8166 84.1568,80.4832 84.5,78.5 Z"/></g>
<g><path style="opacity:0.991" fill="#a32b27" d="M 82.5,79.5 C 82.5,80.1667 82.5,80.8333 82.5,81.5C 77.5,82.8333 72.5,84.1667 67.5,85.5C 72.2696,83.1277 77.2696,81.1277 82.5,79.5 Z"/></g>
<g><path style="opacity:1" fill="#a32b27" d="M 139.5,80.5 C 136.912,82.6246 133.912,83.9579 130.5,84.5C 133.088,82.3754 136.088,81.0421 139.5,80.5 Z"/></g>
<g><path style="opacity:0.98" fill="#9f2926" d="M 82.5,81.5 C 82.8333,82.1667 83.1667,82.8333 83.5,83.5C 67.6796,88.44 52.013,93.7733 36.5,99.5C 36.8333,98.1667 37.1667,96.8333 37.5,95.5C 37.8333,95.5 38.1667,95.5 38.5,95.5C 48.5288,92.9359 58.1955,89.6025 67.5,85.5C 72.5,84.1667 77.5,82.8333 82.5,81.5 Z"/></g>
<g><path style="opacity:0.816" fill="#86241f" d="M 113.5,80.5 C 107.804,83.6776 101.804,86.3443 95.5,88.5C 94.6618,88.1583 94.3284,87.4916 94.5,86.5C 97.9116,85.9251 100.912,84.5918 103.5,82.5C 106.802,81.7063 110.135,81.0396 113.5,80.5 Z"/></g>
<g><path style="opacity:0.702" fill="#80231d" d="M 103.5,82.5 C 100.912,84.5918 97.9116,85.9251 94.5,86.5C 94.5,85.5 94.5,84.5 94.5,83.5C 97.5176,83.2962 100.518,82.9629 103.5,82.5 Z"/></g>
<g><path style="opacity:0.968" fill="#ad2c2a" d="M 140.5,82.5 C 139.425,94.5335 142.258,105.533 149,115.5C 149.912,119.452 149.245,123.119 147,126.5C 139.803,134.031 132.303,141.198 124.5,148C 122.167,148.667 119.833,148.667 117.5,148C 105.765,134.693 98.7654,119.193 96.5,101.5C 111.393,95.7208 126.06,89.3874 140.5,82.5 Z"/></g>
<g><path style="opacity:0.976" fill="#982824" d="M 83.5,83.5 C 83.5,84.5 83.5,85.5 83.5,86.5C 67.5738,92.031 51.5738,97.3643 35.5,102.5C 36.1098,101.609 36.4431,100.609 36.5,99.5C 52.013,93.7733 67.6796,88.44 83.5,83.5 Z"/></g>
<g><path style="opacity:1" fill="#a32b27" d="M 67.5,85.5 C 58.1955,89.6025 48.5288,92.9359 38.5,95.5C 47.8045,91.3975 57.4712,88.0641 67.5,85.5 Z"/></g>
<g><path style="opacity:1" fill="#a32b27" d="M 128.5,85.5 C 126.574,87.2927 124.241,88.2927 121.5,88.5C 123.426,86.7073 125.759,85.7073 128.5,85.5 Z"/></g>
<g><path style="opacity:0.976" fill="#922723" d="M 83.5,86.5 C 83.5,87.1667 83.5,87.8333 83.5,88.5C 77.0196,90.6576 70.6863,92.9909 64.5,95.5C 60.0601,97.5376 55.3934,99.2042 50.5,100.5C 45.5,101.833 40.5,103.167 35.5,104.5C 35.5,103.833 35.5,103.167 35.5,102.5C 51.5738,97.3643 67.5738,92.031 83.5,86.5 Z"/></g>
<g><path style="opacity:0.799" fill="#8c2621" d="M 83.5,88.5 C 83.5,89.8333 83.5,91.1667 83.5,92.5C 77.1482,93.392 70.8149,94.392 64.5,95.5C 70.6863,92.9909 77.0196,90.6576 83.5,88.5 Z"/></g>
<g><path style="opacity:1" fill="#a32b27" d="M 119.5,89.5 C 117.574,91.2927 115.241,92.2927 112.5,92.5C 114.426,90.7073 116.759,89.7073 119.5,89.5 Z"/></g>
<g><path style="opacity:1" fill="#a62b28" d="M 139.5,80.5 C 139.833,80.5 140.167,80.5 140.5,80.5C 140.5,81.1667 140.5,81.8333 140.5,82.5C 126.06,89.3874 111.393,95.7208 96.5,101.5C 96.5,101.167 96.5,100.833 96.5,100.5C 98.3684,99.7368 100.035,98.7368 101.5,97.5C 101.842,96.6618 102.508,96.3284 103.5,96.5C 106.241,96.2927 108.574,95.2927 110.5,93.5C 110.842,92.6618 111.508,92.3284 112.5,92.5C 115.241,92.2927 117.574,91.2927 119.5,89.5C 119.842,88.6618 120.508,88.3284 121.5,88.5C 124.241,88.2927 126.574,87.2927 128.5,85.5C 128.842,84.6618 129.508,84.3284 130.5,84.5C 133.912,83.9579 136.912,82.6246 139.5,80.5 Z"/></g>
<g><path style="opacity:0.925" fill="#922723" d="M 88.5,93.5 C 90.3255,98.4844 92.6589,103.151 95.5,107.5C 96.3234,110.461 96.99,113.461 97.5,116.5C 93.3232,109.48 89.6565,102.146 86.5,94.5C 87.1667,94.1667 87.8333,93.8333 88.5,93.5 Z"/></g>
<g><path style="opacity:0.824" fill="#8c2621" d="M 88.5,93.5 C 89.5,93.5 90.5,93.5 91.5,93.5C 91.6596,95.153 92.3263,96.4863 93.5,97.5C 94.3778,100.761 95.0445,104.094 95.5,107.5C 92.6589,103.151 90.3255,98.4844 88.5,93.5 Z"/></g>
<g><path style="opacity:0.471" fill="#86251f" d="M 91.5,93.5 C 93.1765,94.1834 93.8432,95.5168 93.5,97.5C 92.3263,96.4863 91.6596,95.153 91.5,93.5 Z"/></g>
<g><path style="opacity:1" fill="#a32b27" d="M 110.5,93.5 C 108.574,95.2927 106.241,96.2927 103.5,96.5C 105.426,94.7073 107.759,93.7073 110.5,93.5 Z"/></g>
<g><path style="opacity:0.969" fill="#ad2c2a" d="M 78.5,94.5 C 84.9546,110.076 91.9546,125.41 99.5,140.5C 85.8232,137.802 73.1566,140.302 61.5,148C 57.5475,148.912 53.8809,148.245 50.5,146C 42.5959,138.766 35.4292,130.933 29,122.5C 28.2937,120.029 28.627,117.695 30,115.5C 44.1339,103.95 60.3006,96.9503 78.5,94.5 Z"/></g>
<g><path style="opacity:0.975" fill="#a32b27" d="M 80.5,94.5 C 80.8333,94.5 81.1667,94.5 81.5,94.5C 83.1185,98.069 84.4519,101.736 85.5,105.5C 83.0431,102.249 81.3764,98.5821 80.5,94.5 Z"/></g>
<g><path style="opacity:0.986" fill="#9f2926" d="M 81.5,94.5 C 82.5,94.5 83.5,94.5 84.5,94.5C 91.1083,110.653 98.1083,126.653 105.5,142.5C 104.609,141.89 103.609,141.557 102.5,141.5C 101.904,139.255 100.904,137.255 99.5,135.5C 98.6236,131.418 96.9569,127.751 94.5,124.5C 93.3263,123.486 92.6596,122.153 92.5,120.5C 91.6236,116.418 89.9569,112.751 87.5,109.5C 86.3263,108.486 85.6596,107.153 85.5,105.5C 84.4519,101.736 83.1185,98.069 81.5,94.5 Z"/></g>
<g><path style="opacity:0.946" fill="#982824" d="M 84.5,94.5 C 85.1667,94.5 85.8333,94.5 86.5,94.5C 89.6565,102.146 93.3232,109.48 97.5,116.5C 100.264,124.033 103.598,131.366 107.5,138.5C 108.167,140.5 108.833,142.5 109.5,144.5C 108.167,143.833 106.833,143.167 105.5,142.5C 98.1083,126.653 91.1083,110.653 84.5,94.5 Z"/></g>
<g><path style="opacity:0.883" fill="#a32b27" d="M 101.5,97.5 C 100.035,98.7368 98.3684,99.7368 96.5,100.5C 95.8333,100.5 95.5,100.167 95.5,99.5C 97.2972,98.2702 99.2972,97.6036 101.5,97.5 Z"/></g>
<g><path style="opacity:0.79" fill="#8d2621" d="M 50.5,100.5 C 47.0283,102.738 43.3617,104.738 39.5,106.5C 37.2972,106.604 35.2972,107.27 33.5,108.5C 33.6596,106.847 34.3263,105.514 35.5,104.5C 40.5,103.167 45.5,101.833 50.5,100.5 Z"/></g>
<g><path style="opacity:0.439" fill="#86251f" d="M 39.5,106.5 C 37.4922,108.268 35.3256,109.934 33,111.5C 32.2599,110.251 32.4265,109.251 33.5,108.5C 35.2972,107.27 37.2972,106.604 39.5,106.5 Z"/></g>
<g><path style="opacity:1" fill="#a32b27" d="M 87.5,109.5 C 89.9569,112.751 91.6236,116.418 92.5,120.5C 90.0431,117.249 88.3764,113.582 87.5,109.5 Z"/></g>
<g><path style="opacity:1" fill="#a72b28" d="M 78.5,94.5 C 79.1667,94.5 79.8333,94.5 80.5,94.5C 81.3764,98.5821 83.0431,102.249 85.5,105.5C 85.6596,107.153 86.3263,108.486 87.5,109.5C 88.3764,113.582 90.0431,117.249 92.5,120.5C 92.6596,122.153 93.3263,123.486 94.5,124.5C 95.3764,128.582 97.0431,132.249 99.5,135.5C 100.904,137.255 101.904,139.255 102.5,141.5C 101.609,140.89 100.609,140.557 99.5,140.5C 91.9546,125.41 84.9546,110.076 78.5,94.5 Z"/></g>
<g><path style="opacity:1" fill="#a32b27" d="M 94.5,124.5 C 96.9569,127.751 98.6236,131.418 99.5,135.5C 97.0431,132.249 95.3764,128.582 94.5,124.5 Z"/></g>
<g><path style="opacity:0.496" fill="#922723" d="M 107.5,138.5 C 109.148,140.429 110.815,142.429 112.5,144.5C 111.575,145.562 110.575,145.562 109.5,144.5C 108.833,142.5 108.167,140.5 107.5,138.5 Z"/></g>
</svg>
